<svg width="1600" height="820" viewBox="0 0 1600 820" fill="none" xmlns="http://www.w3.org/2000/svg">
  <defs>
    <linearGradient id="bg" x1="150" y1="90" x2="1450" y2="740" gradientUnits="userSpaceOnUse">
      <stop stop-color="#020617"/>
      <stop offset="0.5" stop-color="#111827"/>
      <stop offset="1" stop-color="#0F172A"/>
    </linearGradient>
    <linearGradient id="line" x1="310" y1="420" x2="1290" y2="420" gradientUnits="userSpaceOnUse">
      <stop stop-color="#38BDF8"/>
      <stop offset="0.5" stop-color="#A78BFA"/>
      <stop offset="1" stop-color="#34D399"/>
    </linearGradient>
  </defs>

  <rect width="1600" height="820" rx="48" fill="url(#bg)"/>
  <path d="M310 420H1290" stroke="url(#line)" stroke-width="10" stroke-linecap="round"/>

  <g opacity="0.16">
    <path d="M410 210V620" stroke="white" stroke-width="3" stroke-dasharray="8 12"/>
    <path d="M720 210V620" stroke="white" stroke-width="3" stroke-dasharray="8 12"/>
    <path d="M1030 210V620" stroke="white" stroke-width="3" stroke-dasharray="8 12"/>
    <path d="M1260 210V620" stroke="white" stroke-width="3" stroke-dasharray="8 12"/>
  </g>

  <circle cx="410" cy="420" r="42" fill="#38BDF8"/>
  <circle cx="720" cy="420" r="42" fill="#A78BFA"/>
  <circle cx="1030" cy="420" r="42" fill="#F59E0B"/>
  <circle cx="1260" cy="420" r="56" fill="#34D399"/>
  <circle cx="1260" cy="420" r="78" stroke="#34D399" stroke-opacity="0.24" stroke-width="18"/>

  <rect x="294" y="220" width="232" height="120" rx="28" fill="rgba(255,255,255,0.07)" stroke="rgba(255,255,255,0.14)"/>
  <rect x="604" y="500" width="232" height="120" rx="28" fill="rgba(255,255,255,0.07)" stroke="rgba(255,255,255,0.14)"/>
  <rect x="914" y="220" width="232" height="120" rx="28" fill="rgba(255,255,255,0.07)" stroke="rgba(255,255,255,0.14)"/>
  <rect x="1146" y="496" width="236" height="136" rx="30" fill="rgba(52,211,153,0.14)" stroke="rgba(52,211,153,0.44)"/>

  <rect x="334" y="252" width="112" height="16" rx="8" fill="#E5E7EB" fill-opacity="0.78"/>
  <rect x="334" y="282" width="146" height="12" rx="6" fill="#94A3B8" fill-opacity="0.42"/>
  <rect x="644" y="532" width="124" height="16" rx="8" fill="#E5E7EB" fill-opacity="0.78"/>
  <rect x="644" y="562" width="146" height="12" rx="6" fill="#94A3B8" fill-opacity="0.42"/>
  <rect x="954" y="252" width="128" height="16" rx="8" fill="#E5E7EB" fill-opacity="0.78"/>
  <rect x="954" y="282" width="140" height="12" rx="6" fill="#94A3B8" fill-opacity="0.42"/>
  <rect x="1186" y="532" width="152" height="18" rx="9" fill="#DCFCE7" fill-opacity="0.9"/>
  <rect x="1186" y="566" width="174" height="14" rx="7" fill="#86EFAC" fill-opacity="0.52"/>
</svg>
